HIERARCHY
ROOT Pelvis
{
	OFFSET 0.000000 0.000000 0.000000
	CHANNELS 6 Xposition Yposition Zposition Zrotation Yrotation Xrotation 
	JOINT Left_hip
	{
		OFFSET 0.076090 -0.089427 -0.010735
		CHANNELS 3 Zrotation Yrotation Xrotation
		JOINT Left_knee
		{
			OFFSET 0.030200 -0.359518 -0.003501
			CHANNELS 3 Zrotation Yrotation Xrotation
			JOINT Left_ankle
			{
				OFFSET -0.011005 -0.371022 -0.045888
				CHANNELS 3 Zrotation Yrotation Xrotation
				JOINT Left_foot
				{
					OFFSET 0.023930 -0.052103 0.111084
					CHANNELS 3 Zrotation Yrotation Xrotation
					End Site
					{
						OFFSET 0.000000 0.000000 0.000000
					}
				}
			}
		}
	}
	JOINT Right_hip
	{
		OFFSET -0.073836 -0.088112 -0.007709
		CHANNELS 3 Zrotation Yrotation Xrotation
		JOINT Right_knee
		{
			OFFSET -0.035715 -0.367809 -0.006536
			CHANNELS 3 Zrotation Yrotation Xrotation
			JOINT Right_ankle
			{
				OFFSET 0.013718 -0.371958 -0.043815
				CHANNELS 3 Zrotation Yrotation Xrotation
				JOINT Right_foot
				{
					OFFSET -0.021936 -0.046387 0.114542
					CHANNELS 3 Zrotation Yrotation Xrotation
					End Site
					{
						OFFSET 0.000000 0.000000 0.000000
					}
				}
			}
		}
	}
	JOINT Spine1
	{
		OFFSET -0.001865 0.102064 -0.019455
		CHANNELS 3 Zrotation Yrotation Xrotation
		JOINT Spine2
		{
			OFFSET 0.003082 0.129260 -0.001938
			CHANNELS 3 Zrotation Yrotation Xrotation
			JOINT Spine3
			{
				OFFSET 0.001104 0.048093 0.026561
				CHANNELS 3 Zrotation Yrotation Xrotation
				JOINT Neck
				{
					OFFSET -0.002010 0.204222 -0.047183
					CHANNELS 3 Zrotation Yrotation Xrotation
					JOINT Head
					{
						OFFSET 0.005050 0.063649 0.048489
						CHANNELS 3 Zrotation Yrotation Xrotation
						End Site
						{
							OFFSET 0.000000 0.000000 0.000000
						}
					}
				}
				JOINT Left_collar
				{
					OFFSET 0.072979 0.114065 -0.031633
					CHANNELS 3 Zrotation Yrotation Xrotation
					JOINT Left_shoulder
					{
						OFFSET 0.083419 0.032092 -0.006530
						CHANNELS 3 Zrotation Yrotation Xrotation
						JOINT Left_elbow
						{
							OFFSET 0.239393 -0.012014 -0.025060
							CHANNELS 3 Zrotation Yrotation Xrotation
							JOINT Left_wrist
							{
								OFFSET 0.227297 0.008116 0.000384
								CHANNELS 3 Zrotation Yrotation Xrotation
								JOINT Left_palm
								{
									OFFSET 0.074607 -0.009248 -0.012277
									CHANNELS 3 Zrotation Yrotation Xrotation
									End Site
									{
										OFFSET 0.000000 0.000000 0.000000
									}
								}
							}
						}
					}
				}
				JOINT Right_collar
				{
					OFFSET -0.074980 0.111880 -0.037894
					CHANNELS 3 Zrotation Yrotation Xrotation
					JOINT Right_shoulder
					{
						OFFSET -0.087565 0.034353 -0.009323
						CHANNELS 3 Zrotation Yrotation Xrotation
						JOINT Right_elbow
						{
							OFFSET -0.236838 -0.013719 -0.019794
							CHANNELS 3 Zrotation Yrotation Xrotation
							JOINT Right_wrist
							{
								OFFSET -0.235053 0.006433 -0.003853
								CHANNELS 3 Zrotation Yrotation Xrotation
								JOINT Right_palm
								{
									OFFSET -0.075499 -0.006894 -0.009792
									CHANNELS 3 Zrotation Yrotation Xrotation
									End Site
									{
										OFFSET 0.000000 0.000000 0.000000
									}
								}
							}
						}
					}
				}
			}
		}
	}
}
MOTION
Frames: 6
Frame Time: 0.100000
0.173610 -0.046411 0.335610 63.773411 71.684291 -124.248448 6.539721 -4.126012 16.058617 1.459983 -25.919214 11.261876 -1.429365 9.344875 -16.389887 14.660431 18.884667 -13.232999 1.338892 7.947218 -11.578759 0.309770 8.821756 17.139376 13.178898 -0.985424 -2.059776 -17.572213 -10.185312 -9.116790 -0.331995 -2.771166 1.856311 1.578082 -0.814461 1.659132 4.098164 -2.446806 4.992743 22.722395 -13.215691 4.083129 22.092305 -2.940215 -5.900402 2.920895 -1.198045 5.228925 -91.976774 -14.512873 20.869844 115.369960 -60.842430 -89.839816 17.315537 14.053660 -51.927948 -8.639415 1.434089 -4.160996 -19.833014 2.977571 -4.687768 95.589963 8.201173 21.458624 -127.601527 49.286771 -112.270604 -1.442167 -6.066752 -77.667578 7.882411 2.797123 -4.877604 
0.129188 -0.061759 0.358607 50.009559 67.849880 -139.047985 7.397206 -3.672772 7.709798 -1.524798 -22.111002 32.105819 -3.573763 6.481615 -9.950413 12.510348 21.710756 -17.646911 4.444721 5.451228 -3.689037 -0.879222 7.194389 12.640454 10.707218 -2.576640 -2.947864 -17.518053 -9.901710 -9.772549 0.503032 -1.395429 4.910820 1.175528 -2.032338 0.748649 4.087278 -2.650488 5.133990 22.415493 -14.191059 3.068772 21.780588 -2.550344 -6.173017 4.544520 -0.573340 3.739155 -88.525704 -17.701347 15.772241 131.021899 -55.225313 -93.690815 25.138798 12.460487 -32.157291 -9.098086 0.749130 -6.961402 -21.929600 1.774720 -6.222362 93.684986 9.383812 16.250021 -135.455013 42.383459 -113.069697 -9.038626 -7.365032 -67.920632 9.452060 2.809761 -3.786651 
0.098032 -0.071447 0.371124 40.325698 64.260759 -149.673057 7.274769 -1.714765 -1.695784 -0.729609 -9.929988 45.236446 -0.569707 9.689040 -9.906663 8.788756 22.036285 -19.241684 4.726727 0.861001 2.342370 -0.748715 7.454057 8.462840 11.458605 -3.323695 -2.718530 -19.519050 -7.910777 -11.912709 1.308026 1.202802 7.394194 1.217928 -2.152206 0.762627 4.436318 -1.705586 6.390110 20.980060 -15.835050 4.015289 22.757686 -1.389439 -5.564609 5.036813 1.552057 2.740011 -85.271930 -19.338845 11.329892 134.869886 -53.091985 -98.328948 34.210767 13.752074 -27.464640 -10.181046 -2.257175 -4.288778 -21.142954 0.394256 -4.622609 88.014914 9.284003 11.702967 -136.154813 42.440931 -110.970894 -26.876521 -11.749740 -45.557387 14.974619 6.564943 -7.159683 
0.070080 -0.076381 0.375540 32.378645 60.952587 -157.711513 5.182347 0.292098 -7.203682 -0.368514 -4.406688 41.588398 -0.661107 10.118569 -8.602273 10.191636 23.243663 -19.284316 3.501774 -1.923136 6.299419 -0.017988 6.174413 6.503522 11.955502 -3.551377 -3.788503 -20.275231 -7.178067 -13.005027 1.919791 2.773849 9.020090 1.194439 -2.023049 1.015557 4.644216 -1.217828 7.129484 21.428746 -16.130572 4.877089 22.831337 -1.941621 -5.796343 3.200870 3.879808 4.083919 -85.819786 -14.614703 10.980897 125.963049 -60.887359 -90.987407 37.793930 14.104856 -22.309215 -11.083412 -2.749560 -8.453497 -18.877586 -0.043142 -2.841434 90.233050 6.314388 12.996507 -130.778621 50.084742 -110.432959 -31.957053 -14.596272 -47.539449 17.016934 7.211054 -9.576233 
0.044009 -0.076334 0.372560 26.411330 58.215842 -162.264478 2.332300 -1.133556 -10.733651 -2.176469 -3.336701 28.347660 -2.963390 9.924009 -5.634980 14.707241 22.014778 -17.709260 2.626937 -2.978088 7.892523 0.194776 4.681949 6.334368 11.397105 -5.523516 -6.484027 -20.036071 -5.681237 -12.260108 2.375855 3.284198 9.139319 0.580672 -1.360632 0.958164 4.856833 -1.026357 8.034621 20.478370 -17.351179 4.117075 23.942269 -0.732187 -6.460254 2.882980 4.447018 5.434694 -89.089689 -9.939026 16.878285 112.529633 -64.046907 -93.238218 26.086454 19.956686 -53.771628 -6.949579 1.151244 -2.511516 -20.360610 0.800129 -2.354200 90.638878 2.429186 18.970670 -121.553839 61.175072 -117.497326 -11.587303 -13.219393 -78.819660 8.741322 2.876211 -5.442898 
0.016702 -0.074885 0.364821 22.762749 56.568330 -164.983519 0.724305 -1.231577 -12.463003 -2.902848 -2.026934 13.293324 -6.208202 6.365230 0.632308 17.734734 22.520968 -15.756218 2.547776 -3.349309 9.464501 -0.737471 2.383695 6.517290 9.604617 -5.281568 -7.718426 -17.708127 -6.629409 -12.609085 2.639776 4.158198 9.436804 -0.008295 -0.728036 2.798899 4.501226 0.091978 7.280190 20.223183 -17.235463 5.101986 23.201162 -1.977957 -5.998350 3.608058 5.550913 4.941065 -89.153597 -8.962329 13.267845 118.565110 -59.227827 -91.460993 12.110093 11.827577 -46.869676 -3.921976 3.449633 -3.705389 -21.928095 1.421301 -2.477425 92.230087 3.249746 18.786172 -144.871455 60.425251 -127.680740 8.270239 3.037149 -73.946744 -0.149326 0.134370 0.707760 
